<svg xmlns="http://www.w3.org/2000/svg" viewBox="0 0 64 64" fill="none">
  <rect width="64" height="64" rx="18" fill="#F4C542"/>
  <rect x="6" y="6" width="52" height="52" rx="16" fill="url(#paint0_linear)"/>
  <path d="M19 36.5C19 30.149 24.149 25 30.5 25H35.5C41.851 25 47 30.149 47 36.5V42C47 42.828 46.328 43.5 45.5 43.5H20.5C19.672 43.5 19 42.828 19 42V36.5Z" fill="#F4C542"/>
  <path d="M24 24C24 20.686 26.686 18 30 18H36C39.314 18 42 20.686 42 24V27H24V24Z" fill="#1B4D2F"/>
  <rect x="23" y="29" width="8.5" height="6.5" rx="1.5" fill="#FFF4CF"/>
  <rect x="32.5" y="29" width="8.5" height="6.5" rx="1.5" fill="#FFF4CF"/>
  <path d="M18 39.5H48" stroke="#1B4D2F" stroke-width="3" stroke-linecap="round"/>
  <circle cx="25" cy="45.5" r="4.5" fill="#1B1A17"/>
  <circle cx="41" cy="45.5" r="4.5" fill="#1B1A17"/>
  <path d="M48.5 14L49.598 16.902L52.5 18L49.598 19.098L48.5 22L47.402 19.098L44.5 18L47.402 16.902L48.5 14Z" fill="#FFF8E3"/>
  <defs>
    <linearGradient id="paint0_linear" x1="10" y1="10" x2="54" y2="56" gradientUnits="userSpaceOnUse">
      <stop stop-color="#1E7A45"/>
      <stop offset="1" stop-color="#14532D"/>
    </linearGradient>
  </defs>
</svg>
