<svg xmlns="http://www.w3.org/2000/svg" viewBox="0 0 1200 630" fill="none">
  <defs>
    <linearGradient id="bg" x1="110" y1="74" x2="1040" y2="580" gradientUnits="userSpaceOnUse">
      <stop stop-color="#FFF3B6"/>
      <stop offset="0.42" stop-color="#F4C542"/>
      <stop offset="1" stop-color="#DCA117"/>
    </linearGradient>
    <linearGradient id="card" x1="790" y1="136" x2="1080" y2="496" gradientUnits="userSpaceOnUse">
      <stop stop-color="#1E7A45"/>
      <stop offset="1" stop-color="#14532D"/>
    </linearGradient>
  </defs>

  <rect width="1200" height="630" rx="40" fill="#F8EBC7"/>
  <rect x="28" y="28" width="1144" height="574" rx="34" fill="url(#bg)"/>
  <circle cx="1035" cy="118" r="112" fill="#FFF8E3" fill-opacity=".34"/>
  <circle cx="177" cy="550" r="136" fill="#14532D" fill-opacity=".09"/>

  <rect x="92" y="88" width="144" height="144" rx="36" fill="#14532D"/>
  <rect x="110" y="106" width="108" height="108" rx="32" fill="#1E7A45"/>
  <path d="M136 167.5C136 152.312 148.312 140 163.5 140H175.5C190.688 140 203 152.312 203 167.5V181C203 182.933 201.433 184.5 199.5 184.5H139.5C137.567 184.5 136 182.933 136 181V167.5Z" fill="#F4C542"/>
  <path d="M148 137C148 129.268 154.268 123 162 123H177C184.732 123 191 129.268 191 137V144H148V137Z" fill="#14532D"/>
  <rect x="146" y="149" width="21" height="15" rx="3" fill="#FFF4CF"/>
  <rect x="170" y="149" width="21" height="15" rx="3" fill="#FFF4CF"/>
  <path d="M134 177H204" stroke="#14532D" stroke-width="7" stroke-linecap="round"/>
  <circle cx="151" cy="193.5" r="10.5" fill="#1B1A17"/>
  <circle cx="187" cy="193.5" r="10.5" fill="#1B1A17"/>

  <path d="M226 104H456" stroke="#14532D" stroke-opacity=".18" stroke-width="6" stroke-linecap="round"/>
  <text x="278" y="152" fill="#14532D" font-family="Segoe UI, Inter, Arial, sans-serif" font-size="64" font-weight="800">
    Keke Park System
  </text>
  <text x="278" y="212" fill="#14532D" fill-opacity=".82" font-family="Segoe UI, Inter, Arial, sans-serif" font-size="30" font-weight="600">
    Digital Queue Management for Transport Parks
  </text>

  <text x="92" y="318" fill="#14532D" font-family="Segoe UI, Inter, Arial, sans-serif" font-size="86" font-weight="800">
    Simple.
  </text>
  <text x="92" y="402" fill="#14532D" font-family="Segoe UI, Inter, Arial, sans-serif" font-size="86" font-weight="800">
    Fast.
  </text>
  <text x="92" y="486" fill="#14532D" font-family="Segoe UI, Inter, Arial, sans-serif" font-size="86" font-weight="800">
    Fair.
  </text>

  <text x="95" y="554" fill="#14532D" fill-opacity=".78" font-family="Segoe UI, Inter, Arial, sans-serif" font-size="28" font-weight="500">
    Driver approvals, daily payments, and live queue tracking for Nigerian transport parks.
  </text>

  <rect x="760" y="122" width="336" height="392" rx="34" fill="url(#card)"/>
  <rect x="790" y="164" width="276" height="84" rx="24" fill="#FFFBEA"/>
  <rect x="790" y="274" width="276" height="84" rx="24" fill="#FFFBEA"/>
  <rect x="790" y="384" width="276" height="94" rx="24" fill="#F4C542"/>

  <text x="822" y="203" fill="#1D1A14" font-family="Segoe UI, Inter, Arial, sans-serif" font-size="20" font-weight="700">
    Driver approvals
  </text>
  <text x="822" y="313" fill="#1D1A14" font-family="Segoe UI, Inter, Arial, sans-serif" font-size="20" font-weight="700">
    Live queue updates
  </text>
  <text x="822" y="425" fill="#14532D" font-family="Segoe UI, Inter, Arial, sans-serif" font-size="22" font-weight="800">
    Daily payments
  </text>
  <text x="822" y="460" fill="#14532D" fill-opacity=".84" font-family="Segoe UI, Inter, Arial, sans-serif" font-size="18" font-weight="600">
    Built for responsive dispatch and
  </text>
  <text x="822" y="487" fill="#14532D" fill-opacity=".84" font-family="Segoe UI, Inter, Arial, sans-serif" font-size="18" font-weight="600">
    better park operations.
  </text>
</svg>
